<?xml version="1.0" encoding="UTF-8"?>
<svg xmlns="http://www.w3.org/2000/svg" xmlns:xlink="http://www.w3.org/1999/xlink" width="60px" height="px" viewBox="0 0 60 60" version="1.1">
<g id="surface1">
<path style=" stroke:none;fill-rule:nonzero;fill:rgb(65.098039%,80.784314%,22.352941%);fill-opacity:1;" d="M 60 30 C 60 46.570312 46.570312 60 30 60 C 13.429688 60 0 46.570312 0 30 C 0 13.429688 13.429688 0 30 0 C 46.570312 0 60 13.429688 60 30 Z M 60 30 "/>
<path style=" stroke:none;fill-rule:nonzero;fill:rgb(100%,100%,100%);fill-opacity:1;" d="M 20.226562 43.640625 L 16.617188 43.640625 L 16.617188 18.539062 L 20.226562 18.539062 Z M 20.226562 43.640625 "/>
<path style=" stroke:none;fill-rule:nonzero;fill:rgb(100%,100%,100%);fill-opacity:1;" d="M 25.523438 18.539062 L 35.273438 18.539062 C 44.554688 18.539062 48.632812 25.171875 48.632812 31.101562 C 48.632812 37.546875 43.59375 43.664062 35.320312 43.664062 L 25.523438 43.664062 Z M 29.132812 40.40625 L 34.875 40.40625 C 43.054688 40.40625 44.929688 34.195312 44.929688 31.101562 C 44.929688 26.0625 41.71875 21.796875 34.6875 21.796875 L 29.132812 21.796875 Z M 29.132812 40.40625 "/>
<path style=" stroke:none;fill-rule:nonzero;fill:rgb(100%,100%,100%);fill-opacity:1;" d="M 20.789062 13.3125 C 20.789062 14.601562 19.734375 15.679688 18.421875 15.679688 C 17.109375 15.679688 16.054688 14.601562 16.054688 13.3125 C 16.054688 12 17.109375 10.945312 18.421875 10.945312 C 19.734375 10.945312 20.789062 12.023438 20.789062 13.3125 Z M 20.789062 13.3125 "/>
</g>
</svg>
